<svg width="152" height="65" viewBox="0 0 152 65" fill="none" xmlns="http://www.w3.org/2000/svg">
<path d="M1.47656 37V12.3906H4.53516V37H1.47656ZM6.29297 26.3477V23.5703H9.49219C11.9766 23.5234 13.2305 22.1406 13.2539 19.4219C13.207 16.6328 11.7891 15.2266 9 15.2031H6.29297V12.3906H9.5625C12.9609 12.5078 15.0586 13.9258 15.8555 16.6445C16.0898 17.418 16.207 18.2617 16.207 19.1758C16.1836 21.8945 15.375 23.8047 13.7812 24.9062C15.1406 25.6328 15.9609 26.957 16.2422 28.8789C16.2656 29.043 16.2891 29.207 16.3125 29.3711L16.9102 37H14.0273L13.5 30.7422C13.3125 28.7266 12.7969 27.4375 11.9531 26.875C11.3906 26.5 10.6289 26.3242 9.66797 26.3477H6.29297ZM19.1602 31.7969V23.1133C19.1602 22.0117 19.6523 20.9336 20.6367 19.8789C21.8555 18.6133 23.3789 17.9805 25.207 17.9805V20.8281C23.8242 20.8281 22.8633 21.4023 22.3242 22.5508C22.1602 22.9023 22.0781 23.2539 22.0781 23.6055V31.3398C22.0781 32.207 22.4766 32.9453 23.2734 33.5547C23.8359 33.9766 24.4805 34.1875 25.207 34.1875V37.0352C22.9805 37.0352 21.2578 36.1328 20.0391 34.3281C19.4531 33.4375 19.1602 32.5938 19.1602 31.7969ZM26.7188 37.0352V34.1875C27.9609 34.1875 28.8516 33.625 29.3906 32.5C29.5781 32.125 29.6719 31.7617 29.6719 31.4102V23.6055C29.6719 22.6445 29.2617 21.8828 28.4414 21.3203C27.9258 20.9922 27.3398 20.8281 26.6836 20.8281V17.9805C28.8398 17.9805 30.5039 18.8594 31.6758 20.6172C32.2617 21.4844 32.5547 22.3164 32.5547 23.1133V31.7969C32.5547 32.9453 32.0625 34.0586 31.0781 35.1367C29.9297 36.3789 28.4766 37.0117 26.7188 37.0352ZM34.5938 32.0078L37.3711 31.4805C37.3711 32.5352 37.9219 33.3672 39.0234 33.9766C39.5625 34.2344 40.0781 34.375 40.5703 34.3984V37.1758C38.2969 37.1758 36.5977 36.3555 35.4727 34.7148C34.8867 33.8477 34.5938 32.9453 34.5938 32.0078ZM34.7695 23.3594C34.7695 21.2266 35.7422 19.6445 37.6875 18.6133C38.625 18.1211 39.5625 17.875 40.5 17.875V20.6172C39.4219 20.6172 38.5898 21.0625 38.0039 21.9531C37.6992 22.3984 37.5469 22.8672 37.5469 23.3594C37.5469 24.1094 38.1328 24.7188 39.3047 25.1875C40.1953 25.5625 41.918 26.0547 44.4727 26.6641C46.0664 26.9922 47.2031 27.7773 47.8828 29.0195C48.2344 29.6758 48.4102 30.4141 48.4102 31.2344C48.4102 33.4844 47.5078 35.1484 45.7031 36.2266C44.6484 36.8594 43.4414 37.1758 42.082 37.1758V34.3984C43.1602 34.3984 44.0625 34.0234 44.7891 33.2734C45.3047 32.7344 45.5625 32.1016 45.5625 31.375C45.5625 30.4375 44.6367 29.6875 42.7852 29.125C42.3164 28.9844 41.5664 28.7852 40.5352 28.5273C39.4336 28.2695 38.6367 28.0586 38.1445 27.8945C36.3633 27.1914 35.2852 26.125 34.9102 24.6953C34.8164 24.2734 34.7695 23.8281 34.7695 23.3594ZM42.0469 20.6523V17.875C44.0625 17.875 45.6914 18.625 46.9336 20.125C47.707 21.0859 48.0938 22.0938 48.0938 23.1484L45.3164 23.6055C45.3164 22.3164 44.6133 21.4141 43.207 20.8984C42.7852 20.7344 42.3984 20.6523 42.0469 20.6523ZM49.8164 32.0078L52.5938 31.4805C52.5938 32.5352 53.1445 33.3672 54.2461 33.9766C54.7852 34.2344 55.3008 34.375 55.793 34.3984V37.1758C53.5195 37.1758 51.8203 36.3555 50.6953 34.7148C50.1094 33.8477 49.8164 32.9453 49.8164 32.0078ZM49.9922 23.3594C49.9922 21.2266 50.9648 19.6445 52.9102 18.6133C53.8477 18.1211 54.7852 17.875 55.7227 17.875V20.6172C54.6445 20.6172 53.8125 21.0625 53.2266 21.9531C52.9219 22.3984 52.7695 22.8672 52.7695 23.3594C52.7695 24.1094 53.3555 24.7188 54.5273 25.1875C55.418 25.5625 57.1406 26.0547 59.6953 26.6641C61.2891 26.9922 62.4258 27.7773 63.1055 29.0195C63.457 29.6758 63.6328 30.4141 63.6328 31.2344C63.6328 33.4844 62.7305 35.1484 60.9258 36.2266C59.8711 36.8594 58.6641 37.1758 57.3047 37.1758V34.3984C58.3828 34.3984 59.2852 34.0234 60.0117 33.2734C60.5273 32.7344 60.7852 32.1016 60.7852 31.375C60.7852 30.4375 59.8594 29.6875 58.0078 29.125C57.5391 28.9844 56.7891 28.7852 55.7578 28.5273C54.6562 28.2695 53.8594 28.0586 53.3672 27.8945C51.5859 27.1914 50.5078 26.125 50.1328 24.6953C50.0391 24.2734 49.9922 23.8281 49.9922 23.3594ZM57.2695 20.6523V17.875C59.2852 17.875 60.9141 18.625 62.1562 20.125C62.9297 21.0859 63.3164 22.0938 63.3164 23.1484L60.5391 23.6055C60.5391 22.3164 59.8359 21.4141 58.4297 20.8984C58.0078 20.7344 57.6211 20.6523 57.2695 20.6523ZM65.7422 37V12.3906H68.8008V23.1133H71.9648V26.1016H68.8008V37H65.7422ZM73.7227 26.1016V23.1133H76.8516V12.3906H79.9453V37H76.8516V26.1016H73.7227ZM82.6875 31.7969V23.1133C82.6875 22.0117 83.1797 20.9336 84.1641 19.8789C85.3828 18.6133 86.9062 17.9805 88.7344 17.9805V20.8281C87.3516 20.8281 86.3906 21.4023 85.8516 22.5508C85.6875 22.9023 85.6055 23.2539 85.6055 23.6055V31.3398C85.6055 32.207 86.0039 32.9453 86.8008 33.5547C87.3633 33.9766 88.0078 34.1875 88.7344 34.1875V37.0352C86.5078 37.0352 84.7852 36.1328 83.5664 34.3281C82.9805 33.4375 82.6875 32.5938 82.6875 31.7969ZM90.2461 37.0352V34.1875C91.4883 34.1875 92.3789 33.625 92.918 32.5C93.1055 32.125 93.1992 31.7617 93.1992 31.4102V23.6055C93.1992 22.6445 92.7891 21.8828 91.9688 21.3203C91.4531 20.9922 90.8672 20.8281 90.2109 20.8281V17.9805C92.3672 17.9805 94.0312 18.8594 95.2031 20.6172C95.7891 21.4844 96.082 22.3164 96.082 23.1133V31.7969C96.082 32.9453 95.5898 34.0586 94.6055 35.1367C93.457 36.3789 92.0039 37.0117 90.2461 37.0352ZM98.7539 31.9375V18.0156H101.742V31.5859C101.742 32.4297 102.164 33.1328 103.008 33.6953C103.57 34.0469 104.191 34.2227 104.871 34.2227V37.1758C102.621 37.1758 100.887 36.2969 99.668 34.5391C99.0586 33.6484 98.7539 32.7812 98.7539 31.9375ZM106.418 37.1758V34.2227C107.684 34.2227 108.609 33.7188 109.195 32.7109C109.406 32.3359 109.512 31.9609 109.512 31.5859V18.0156H112.5V31.9375C112.5 33.0391 111.996 34.1289 110.988 35.207C109.77 36.4961 108.246 37.1523 106.418 37.1758ZM114.539 32.0078L117.316 31.4805C117.316 32.5352 117.867 33.3672 118.969 33.9766C119.508 34.2344 120.023 34.375 120.516 34.3984V37.1758C118.242 37.1758 116.543 36.3555 115.418 34.7148C114.832 33.8477 114.539 32.9453 114.539 32.0078ZM114.715 23.3594C114.715 21.2266 115.688 19.6445 117.633 18.6133C118.57 18.1211 119.508 17.875 120.445 17.875V20.6172C119.367 20.6172 118.535 21.0625 117.949 21.9531C117.645 22.3984 117.492 22.8672 117.492 23.3594C117.492 24.1094 118.078 24.7188 119.25 25.1875C120.141 25.5625 121.863 26.0547 124.418 26.6641C126.012 26.9922 127.148 27.7773 127.828 29.0195C128.18 29.6758 128.355 30.4141 128.355 31.2344C128.355 33.4844 127.453 35.1484 125.648 36.2266C124.594 36.8594 123.387 37.1758 122.027 37.1758V34.3984C123.105 34.3984 124.008 34.0234 124.734 33.2734C125.25 32.7344 125.508 32.1016 125.508 31.375C125.508 30.4375 124.582 29.6875 122.73 29.125C122.262 28.9844 121.512 28.7852 120.48 28.5273C119.379 28.2695 118.582 28.0586 118.09 27.8945C116.309 27.1914 115.23 26.125 114.855 24.6953C114.762 24.2734 114.715 23.8281 114.715 23.3594ZM121.992 20.6523V17.875C124.008 17.875 125.637 18.625 126.879 20.125C127.652 21.0859 128.039 22.0938 128.039 23.1484L125.262 23.6055C125.262 22.3164 124.559 21.4141 123.152 20.8984C122.73 20.7344 122.344 20.6523 121.992 20.6523ZM130.43 31.7969V23.0781C130.453 22 130.969 20.9336 131.977 19.8789C133.195 18.6367 134.672 18.0039 136.406 17.9805V20.7578C135.281 20.7578 134.402 21.25 133.77 22.2344C133.512 22.6562 133.383 23.043 133.383 23.3945V25.7852H141.258V23.3945C141.258 22.3398 140.719 21.5664 139.641 21.0742C139.148 20.8398 138.645 20.7227 138.129 20.7227V17.9805C139.746 17.9805 141.188 18.5547 142.453 19.7031C143.508 20.7109 144.047 21.8242 144.07 23.043V28.6328H133.383V31.7969C133.383 32.4531 133.758 33.0625 134.508 33.625C135.117 34.0469 135.762 34.2578 136.441 34.2578V37C134.309 37 132.633 36.1328 131.414 34.3984C130.758 33.4844 130.43 32.6172 130.43 31.7969ZM138.129 37V34.2227C139.535 34.2227 140.59 33.6133 141.293 32.3945C141.434 32.1367 141.539 31.8906 141.609 31.6562L144.105 32.5703C143.684 34.1875 142.723 35.4062 141.223 36.2266C140.262 36.7422 139.23 37 138.129 37Z" fill="white"/>
<path d="M0.286 62L3.322 57.974L0.473 54.19H1.375L3.971 57.666H5.038V54.19H5.797V57.666H6.853L9.46 54.19H10.362L7.502 57.974L10.538 62H9.647L6.875 58.37H5.797V62H5.038V58.37H3.949L1.177 62H0.286ZM13.1819 62V54.19H13.9409V60.944L18.7809 54.19H19.4959V62H18.7369V55.367L13.9519 62H13.1819ZM28.3593 54.872H25.5763V62H24.8063V54.872H22.0233V54.19H28.3593V54.872ZM36.1292 62V54.872H32.9392L32.8952 56.522C32.8585 57.6 32.7815 58.4947 32.6642 59.206C32.5468 59.9173 32.3818 60.4783 32.1692 60.889C31.9565 61.2923 31.6962 61.582 31.3882 61.758C31.0802 61.9267 30.7135 62.011 30.2882 62.011V61.329C30.5742 61.329 30.8272 61.2557 31.0472 61.109C31.2672 60.9623 31.4542 60.7057 31.6082 60.339C31.7622 59.9723 31.8832 59.4663 31.9712 58.821C32.0665 58.1683 32.1288 57.3433 32.1582 56.346L32.2242 54.19H36.8882V62H36.1292ZM43.3073 62.055C42.7573 62.055 42.2587 61.945 41.8113 61.725C41.364 61.505 40.979 61.208 40.6563 60.834C40.3337 60.4527 40.0843 60.0273 39.9083 59.558C39.7323 59.0813 39.6443 58.5937 39.6443 58.095C39.6443 57.5743 39.736 57.0793 39.9193 56.61C40.1027 56.1333 40.3593 55.7117 40.6893 55.345C41.0267 54.971 41.419 54.6777 41.8663 54.465C42.3137 54.245 42.7977 54.135 43.3183 54.135C43.8683 54.135 44.367 54.2487 44.8143 54.476C45.2617 54.7033 45.643 55.0077 45.9583 55.389C46.281 55.7703 46.5303 56.1957 46.7063 56.665C46.8823 57.1343 46.9703 57.6147 46.9703 58.106C46.9703 58.6267 46.8787 59.1253 46.6953 59.602C46.512 60.0713 46.2553 60.493 45.9253 60.867C45.5953 61.2337 45.2067 61.5233 44.7593 61.736C44.312 61.9487 43.828 62.055 43.3073 62.055ZM40.4143 58.095C40.4143 58.5203 40.484 58.931 40.6233 59.327C40.7627 59.7157 40.9607 60.064 41.2173 60.372C41.474 60.6727 41.7783 60.9147 42.1303 61.098C42.4897 61.274 42.882 61.362 43.3073 61.362C43.7547 61.362 44.1543 61.2703 44.5063 61.087C44.8657 60.8963 45.17 60.647 45.4193 60.339C45.676 60.0237 45.8703 59.6717 46.0023 59.283C46.1343 58.8943 46.2003 58.4983 46.2003 58.095C46.2003 57.6697 46.1307 57.2627 45.9913 56.874C45.852 56.4853 45.6503 56.137 45.3863 55.829C45.1297 55.521 44.8253 55.279 44.4733 55.103C44.1213 54.927 43.7327 54.839 43.3073 54.839C42.8673 54.839 42.4677 54.9307 42.1083 55.114C41.7563 55.2973 41.452 55.5467 41.1953 55.862C40.946 56.17 40.7517 56.5183 40.6123 56.907C40.4803 57.2957 40.4143 57.6917 40.4143 58.095ZM55.6161 59.987C55.6161 60.3757 55.5171 60.724 55.3191 61.032C55.1211 61.3327 54.8534 61.571 54.5161 61.747C54.1861 61.9157 53.8231 62 53.4271 62H49.7421V54.19H53.5041C53.8708 54.19 54.1861 54.289 54.4501 54.487C54.7214 54.6777 54.9268 54.927 55.0661 55.235C55.2128 55.5357 55.2861 55.851 55.2861 56.181C55.2861 56.5697 55.1871 56.929 54.9891 57.259C54.7911 57.589 54.5161 57.8347 54.1641 57.996C54.6114 58.128 54.9634 58.3737 55.2201 58.733C55.4841 59.0923 55.6161 59.5103 55.6161 59.987ZM54.8461 59.855C54.8461 59.591 54.7874 59.349 54.6701 59.129C54.5528 58.9017 54.3914 58.7183 54.1861 58.579C53.9881 58.4397 53.7608 58.37 53.5041 58.37H50.5121V61.329H53.4271C53.6911 61.329 53.9294 61.2593 54.1421 61.12C54.3548 60.9807 54.5234 60.801 54.6481 60.581C54.7801 60.3537 54.8461 60.1117 54.8461 59.855ZM50.5121 54.861V57.743H53.1961C53.4528 57.743 53.6801 57.677 53.8781 57.545C54.0761 57.4057 54.2338 57.226 54.3511 57.006C54.4684 56.786 54.5271 56.5513 54.5271 56.302C54.5271 56.038 54.4721 55.7997 54.3621 55.587C54.2521 55.367 54.1018 55.191 53.9111 55.059C53.7204 54.927 53.5041 54.861 53.2621 54.861H50.5121ZM58.4323 62V54.19H59.1913V60.944L64.0313 54.19H64.7463V62H63.9873V55.367L59.2023 62H58.4323ZM68.1097 62V54.19H68.8687V60.944L73.7087 54.19H74.4237V62H73.6647V55.367L68.8797 62H68.1097ZM71.2777 53.53C70.9183 53.53 70.614 53.4787 70.3647 53.376C70.1227 53.266 69.9393 53.1193 69.8147 52.936C69.69 52.7453 69.624 52.54 69.6167 52.32H70.2217C70.229 52.5107 70.306 52.683 70.4527 52.837C70.6067 52.991 70.8817 53.068 71.2777 53.068C71.659 53.068 71.9267 52.9983 72.0807 52.859C72.2347 52.7123 72.3153 52.5327 72.3227 52.32H72.9277C72.9203 52.54 72.8543 52.7453 72.7297 52.936C72.605 53.1193 72.4217 53.266 72.1797 53.376C71.945 53.4787 71.6443 53.53 71.2777 53.53ZM81.8668 62V54.19H82.6368V57.666H83.8138L86.4978 54.19H87.3888L84.4518 57.974L87.5758 62H86.6298L83.8358 58.37H82.6368V62H81.8668ZM92.8748 62.055C92.3248 62.055 91.8261 61.945 91.3788 61.725C90.9315 61.505 90.5465 61.208 90.2238 60.834C89.9011 60.4527 89.6518 60.0273 89.4758 59.558C89.2998 59.0813 89.2118 58.5937 89.2118 58.095C89.2118 57.5743 89.3035 57.0793 89.4868 56.61C89.6701 56.1333 89.9268 55.7117 90.2568 55.345C90.5941 54.971 90.9865 54.6777 91.4338 54.465C91.8811 54.245 92.3651 54.135 92.8858 54.135C93.4358 54.135 93.9345 54.2487 94.3818 54.476C94.8291 54.7033 95.2105 55.0077 95.5258 55.389C95.8485 55.7703 96.0978 56.1957 96.2738 56.665C96.4498 57.1343 96.5378 57.6147 96.5378 58.106C96.5378 58.6267 96.4461 59.1253 96.2628 59.602C96.0795 60.0713 95.8228 60.493 95.4928 60.867C95.1628 61.2337 94.7741 61.5233 94.3268 61.736C93.8795 61.9487 93.3955 62.055 92.8748 62.055ZM89.9818 58.095C89.9818 58.5203 90.0515 58.931 90.1908 59.327C90.3301 59.7157 90.5281 60.064 90.7848 60.372C91.0415 60.6727 91.3458 60.9147 91.6978 61.098C92.0571 61.274 92.4495 61.362 92.8748 61.362C93.3221 61.362 93.7218 61.2703 94.0738 61.087C94.4331 60.8963 94.7375 60.647 94.9868 60.339C95.2435 60.0237 95.4378 59.6717 95.5698 59.283C95.7018 58.8943 95.7678 58.4983 95.7678 58.095C95.7678 57.6697 95.6981 57.2627 95.5588 56.874C95.4195 56.4853 95.2178 56.137 94.9538 55.829C94.6971 55.521 94.3928 55.279 94.0408 55.103C93.6888 54.927 93.3001 54.839 92.8748 54.839C92.4348 54.839 92.0351 54.9307 91.6758 55.114C91.3238 55.2973 91.0195 55.5467 90.7628 55.862C90.5135 56.17 90.3191 56.5183 90.1798 56.907C90.0478 57.2957 89.9818 57.6917 89.9818 58.095ZM106.229 62V55.642L103.402 60.581H102.918L100.08 55.642V62H99.3096V54.19H100.102L103.149 59.536L106.218 54.19H106.999V62H106.229ZM110.276 62V54.19H116.172V62H115.402V54.872H111.046V62H110.276ZM124.729 62V54.872H121.539L121.495 56.522C121.458 57.6 121.381 58.4947 121.264 59.206C121.146 59.9173 120.981 60.4783 120.769 60.889C120.556 61.2923 120.296 61.582 119.988 61.758C119.68 61.9267 119.313 62.011 118.888 62.011V61.329C119.174 61.329 119.427 61.2557 119.647 61.109C119.867 60.9623 120.054 60.7057 120.208 60.339C120.362 59.9723 120.483 59.4663 120.571 58.821C120.666 58.1683 120.728 57.3433 120.758 56.346L120.824 54.19H125.488V62H124.729ZM134.008 61.318V62H128.761V54.19H133.909V54.872H129.531V57.688H133.348V58.337H129.531V61.318H134.008ZM136.784 62V54.19H137.554V57.666H138.731L141.415 54.19H142.306L139.369 57.974L142.493 62H141.547L138.753 58.37H137.554V62H136.784ZM144.129 58.04C144.129 57.5633 144.21 57.0977 144.371 56.643C144.54 56.181 144.782 55.763 145.097 55.389C145.412 55.0077 145.801 54.707 146.263 54.487C146.725 54.2597 147.249 54.146 147.836 54.146C148.533 54.146 149.127 54.3073 149.618 54.63C150.117 54.9453 150.483 55.3523 150.718 55.851L150.113 56.225C149.944 55.8803 149.732 55.609 149.475 55.411C149.218 55.2057 148.943 55.059 148.65 54.971C148.364 54.883 148.078 54.839 147.792 54.839C147.323 54.839 146.908 54.9343 146.549 55.125C146.19 55.3083 145.885 55.5577 145.636 55.873C145.394 56.181 145.211 56.5293 145.086 56.918C144.961 57.2993 144.899 57.688 144.899 58.084C144.899 58.5167 144.972 58.931 145.119 59.327C145.266 59.723 145.471 60.075 145.735 60.383C145.999 60.6837 146.307 60.9257 146.659 61.109C147.018 61.285 147.407 61.373 147.825 61.373C148.118 61.373 148.419 61.3217 148.727 61.219C149.035 61.1163 149.321 60.9587 149.585 60.746C149.856 60.5333 150.073 60.2583 150.234 59.921L150.872 60.251C150.711 60.6397 150.461 60.9697 150.124 61.241C149.787 61.5123 149.409 61.7177 148.991 61.857C148.58 61.9963 148.177 62.066 147.781 62.066C147.246 62.066 146.754 61.9523 146.307 61.725C145.86 61.4903 145.471 61.1823 145.141 60.801C144.818 60.4123 144.569 59.9797 144.393 59.503C144.217 59.019 144.129 58.5313 144.129 58.04Z" fill="white"/>
</svg>
